<?xml version="1.0" encoding="utf-8" standalone="no"?>
<!DOCTYPE svg PUBLIC "-//W3C//DTD SVG 1.1//EN" "http://www.w3.org/Graphics/SVG/1.1/DTD/svg11.dtd">
<svg width="3000px" height="3000px" version="1.1" xmlns="http://www.w3.org/2000/svg" xmlns:xlink="http://www.w3.org/1999/xlink">
<g id="ideograms">
<g id="highlighttrack_0">
<path d="M799.208,2475.588 A1201.200,1201.200 40.000 0,1 387.518,1046.937 L363.068,1036.979 A1227.600,1227.600 0.000 0,0 783.806,2497.029 Z" style="stroke-width:2.0;stroke:rgb(0,0,0);stroke-linecap:round;fill:rgb(0,0,0);" />
<path d="M963.007,2574.486 A1201.200,1201.200 40.000 0,1 797.498,2474.357 L782.058,2495.772 A1227.600,1227.600 0.000 0,0 951.205,2598.101 Z" style="stroke-width:2.0;stroke:rgb(0,0,0);stroke-linecap:round;fill:rgb(0,0,0);" />
<path d="M2670.143,1228.619 A1201.200,1201.200 40.000 0,1 961.422,2573.692 L949.585,2597.290 A1227.600,1227.600 0.000 0,0 2695.860,1222.654 Z" style="stroke-width:2.0;stroke:rgb(0,0,0);stroke-linecap:round;fill:rgb(0,0,0);" />
<path d="M2484.651,812.000 A1201.200,1201.200 40.000 0,1 2671.157,1233.030 L2696.897,1227.163 A1227.600,1227.600 0.000 0,0 2506.291,796.879 Z" style="stroke-width:2.0;stroke:rgb(0,0,0);stroke-linecap:round;fill:rgb(0,0,0);" />
<path d="M2193.300,519.074 A1201.200,1201.200 40.000 0,1 2486.451,814.584 L2508.132,799.520 A1227.600,1227.600 0.000 0,0 2208.537,497.515 Z" style="stroke-width:2.0;stroke:rgb(0,0,0);stroke-linecap:round;fill:rgb(0,0,0);" />
<path d="M2177.040,507.781 A1201.200,1201.200 40.000 0,1 2196.754,521.524 L2212.067,500.019 A1227.600,1227.600 0.000 0,0 2191.920,485.974 Z" style="stroke-width:2.0;stroke:rgb(0,0,0);stroke-linecap:round;fill:rgb(0,0,0);" />
<path d="M2142.475,485.058 A1201.200,1201.200 40.000 0,1 2178.418,508.723 L2193.328,486.936 A1227.600,1227.600 0.000 0,0 2156.596,462.752 Z" style="stroke-width:2.0;stroke:rgb(0,0,0);stroke-linecap:round;fill:rgb(0,0,0);" />
<path d="M1991.964,404.166 A1201.200,1201.200 40.000 0,1 2143.726,485.851 L2157.874,463.562 A1227.600,1227.600 0.000 0,0 2002.777,380.082 Z" style="stroke-width:2.0;stroke:rgb(0,0,0);stroke-linecap:round;fill:rgb(0,0,0);" />
<path d="M1978.282,398.125 A1201.200,1201.200 40.000 0,1 1993.258,404.748 L2004.099,380.676 A1227.600,1227.600 0.000 0,0 1988.793,373.908 Z" style="stroke-width:2.0;stroke:rgb(0,0,0);stroke-linecap:round;fill:rgb(0,0,0);" />
<path d="M1965.544,392.683 A1201.200,1201.200 40.000 0,1 1979.353,398.591 L1989.888,374.384 A1227.600,1227.600 0.000 0,0 1975.776,368.347 Z" style="stroke-width:2.0;stroke:rgb(0,0,0);stroke-linecap:round;fill:rgb(0,0,0);" />
<path d="M1747.479,324.570 A1201.200,1201.200 40.000 0,1 1966.448,393.064 L1976.699,368.735 A1227.600,1227.600 0.000 0,0 1752.919,298.737 Z" style="stroke-width:2.0;stroke:rgb(0,0,0);stroke-linecap:round;fill:rgb(0,0,0);" />
</g>
<g id="highlighttrack_0">
<path d="M1074.438,376.711 A1201.200,1201.200 40.000 0,1 1275.757,319.917 L1270.828,293.981 A1227.600,1227.600 0.000 0,0 1065.085,352.023 Z" style="stroke-width:2.0;stroke:rgb(0,0,0);stroke-linecap:round;fill:rgb(0,0,0);" />
<path d="M1001.991,406.899 A1201.200,1201.200 40.000 0,1 1075.804,376.194 L1066.481,351.495 A1227.600,1227.600 0.000 0,0 991.046,382.875 Z" style="stroke-width:2.0;stroke:rgb(0,0,0);stroke-linecap:round;fill:rgb(0,0,0);" />
<path d="M911.814,452.661 A1201.200,1201.200 40.000 0,1 1006.209,404.988 L995.357,380.921 A1227.600,1227.600 0.000 0,0 898.887,429.642 Z" style="stroke-width:2.0;stroke:rgb(0,0,0);stroke-linecap:round;fill:rgb(0,0,0);" />
<path d="M891.682,464.225 A1201.200,1201.200 40.000 0,1 913.379,451.784 L900.487,428.746 A1227.600,1227.600 0.000 0,0 878.312,441.461 Z" style="stroke-width:2.0;stroke:rgb(0,0,0);stroke-linecap:round;fill:rgb(0,0,0);" />
<path d="M755.444,557.388 A1201.200,1201.200 40.000 0,1 893.823,462.970 L880.501,440.178 A1227.600,1227.600 0.000 0,0 739.080,536.671 Z" style="stroke-width:2.0;stroke:rgb(0,0,0);stroke-linecap:round;fill:rgb(0,0,0);" />
<path d="M734.291,574.489 A1201.200,1201.200 40.000 0,1 757.509,555.761 L741.190,535.008 A1227.600,1227.600 0.000 0,0 717.462,554.148 Z" style="stroke-width:2.0;stroke:rgb(0,0,0);stroke-linecap:round;fill:rgb(0,0,0);" />
<path d="M693.373,609.925 A1201.200,1201.200 40.000 0,1 736.060,573.028 L719.270,552.655 A1227.600,1227.600 0.000 0,0 675.645,590.362 Z" style="stroke-width:2.0;stroke:rgb(0,0,0);stroke-linecap:round;fill:rgb(0,0,0);" />
<path d="M644.418,656.875 A1201.200,1201.200 40.000 0,1 694.038,609.322 L676.324,589.747 A1227.600,1227.600 0.000 0,0 625.614,638.344 Z" style="stroke-width:2.0;stroke:rgb(0,0,0);stroke-linecap:round;fill:rgb(0,0,0);" />
<path d="M622.477,679.735 A1201.200,1201.200 40.000 0,1 646.925,654.337 L628.176,635.751 A1227.600,1227.600 0.000 0,0 603.190,661.708 Z" style="stroke-width:2.0;stroke:rgb(0,0,0);stroke-linecap:round;fill:rgb(0,0,0);" />
<path d="M606.159,697.547 A1201.200,1201.200 40.000 0,1 624.974,677.072 L605.742,658.986 A1227.600,1227.600 0.000 0,0 586.514,679.911 Z" style="stroke-width:2.0;stroke:rgb(0,0,0);stroke-linecap:round;fill:rgb(0,0,0);" />
<path d="M575.467,733.110 A1201.200,1201.200 40.000 0,1 607.484,696.074 L587.869,678.405 A1227.600,1227.600 0.000 0,0 555.148,716.255 Z" style="stroke-width:2.0;stroke:rgb(0,0,0);stroke-linecap:round;fill:rgb(0,0,0);" />
<path d="M566.712,743.789 A1201.200,1201.200 40.000 0,1 577.361,730.832 L557.083,713.927 A1227.600,1227.600 0.000 0,0 546.200,727.169 Z" style="stroke-width:2.0;stroke:rgb(0,0,0);stroke-linecap:round;fill:rgb(0,0,0);" />
<path d="M526.357,796.508 A1201.200,1201.200 40.000 0,1 568.711,741.328 L548.243,724.654 A1227.600,1227.600 0.000 0,0 504.958,781.047 Z" style="stroke-width:2.0;stroke:rgb(0,0,0);stroke-linecap:round;fill:rgb(0,0,0);" />
</g>
<path d="M 346.64,873.57 L 307.10,852.09 " style="stroke-linecap:round;fill:none;" />
<path d="M 356.57,855.62 L 317.37,833.52 " style="stroke-linecap:round;fill:none;" />
<path d="M 1479.49,187.66 L 1478.78,142.67 " style="stroke-linecap:round;fill:none;" />
<path d="M 1500.00,187.50 L 1500.00,142.50 " style="stroke-linecap:round;fill:none;" />
</g>
<g id="track_0">
<path d="M 2421.1,2016.5 L 2381.4,1993.5 2341.5,1969.0 2301.4,1943.0 2261.1,1915.7 2220.6,1887.0 2180.0,1857.2 2139.3,1826.2 2098.4,1794.2 2057.5,1761.2 2016.5,1727.2 1975.5,1692.4 1934.4,1656.8 1893.4,1620.5 1852.5,1583.4 1811.6,1545.8 1770.9,1507.6 1730.4,1468.9 1690.1,1429.8 1650.0,1390.2 1610.3,1350.4 1570.8,1310.2 1531.8,1269.7 1493.3,1229.0 1455.2,1188.2 1417.7,1147.2 1380.8,1106.2 1344.6,1065.1 1309.2,1023.9 1274.5,982.8 1240.7,941.7 1207.8,900.6 1175.9,859.7 1145.0,818.8 1115.3,778.1 1086.9,737.5 1059.7,697.2 1033.8,657.0 1009.4,617.0 986.6,577.2  " style="stroke-opacity: 1.000000; stroke-width: 20.0; stroke: rgb(102,194,165); fill: none"  />
<path d="M 2545.3,1650.1 L 2503.6,1643.3 2461.3,1634.8 2418.5,1624.7 2375.4,1612.9 2332.0,1599.5 2288.3,1584.5 2244.5,1568.0 2200.7,1550.0 2156.8,1530.5 2113.1,1509.5 2069.6,1487.1 2026.3,1463.4 1983.3,1438.3 1940.7,1412.0 1898.6,1384.4 1857.1,1355.6 1816.1,1325.7 1775.8,1294.6 1736.2,1262.5 1697.5,1229.4 1659.6,1195.4 1622.6,1160.5 1586.6,1124.7 1551.6,1088.2 1517.8,1050.9 1485.1,1013.0 1453.6,974.5 1423.3,935.5 1394.4,896.0 1366.9,856.1 1340.7,815.9 1316.0,775.4 1292.8,734.7 1271.2,694.0 1251.2,653.2 1232.7,612.4 1216.0,571.8 1201.0,531.4 1187.7,491.2  " style="stroke-opacity: 1.000000; stroke-width: 20.0; stroke: rgb(102,194,165); fill: none"  />
<path d="M 2555.7,1524.3 L 2513.0,1522.6 2469.5,1519.2 2425.4,1514.3 2380.5,1507.9 2335.2,1499.9 2289.4,1490.4 2243.2,1479.5 2196.6,1467.1 2149.9,1453.4 2103.0,1438.2 2056.0,1421.7 2009.1,1403.9 1962.2,1384.7 1915.4,1364.4 1868.9,1342.8 1822.7,1320.0 1776.8,1296.1 1731.4,1271.0 1686.5,1245.0 1642.2,1217.8 1598.5,1189.7 1555.6,1160.7 1513.4,1130.7 1472.1,1099.9 1431.7,1068.4 1392.3,1036.0 1353.9,1003.0 1316.6,969.3 1280.6,934.9 1245.7,900.1 1212.2,864.7 1180.0,828.9 1149.3,792.8 1120.0,756.3 1092.2,719.5 1066.1,682.5 1041.6,645.4 1018.8,608.3 997.8,571.0  " style="stroke-opacity: 1.000000; stroke-width: 20.0; stroke: rgb(102,194,165); fill: none"  />
<path d="M 2253.9,2239.4 L 2221.1,2206.5 2188.5,2172.0 2156.0,2136.2 2123.6,2099.1 2091.2,2060.8 2059.0,2021.3 2026.8,1980.8 1994.7,1939.3 1962.7,1897.0 1930.8,1853.8 1898.9,1809.8 1867.1,1765.2 1835.4,1720.0 1803.9,1674.2 1772.4,1627.9 1741.1,1581.2 1709.9,1534.1 1679.0,1486.7 1648.2,1439.1 1617.8,1391.3 1587.5,1343.3 1557.7,1295.3 1528.1,1247.2 1499.0,1199.1 1470.3,1151.0 1442.1,1103.1 1414.5,1055.2 1387.4,1007.6 1361.0,960.2 1335.3,913.0 1310.4,866.1 1286.4,819.5 1263.2,773.2 1241.1,727.4 1220.0,681.9 1200.0,636.9 1181.2,592.3 1163.8,548.1 1147.7,504.5  " style="stroke-opacity: 1.000000; stroke-width: 20.0; stroke: rgb(102,194,165); fill: none"  />
<path d="M 1306.1,2538.0 L 1314.1,2492.1 1321.1,2445.0 1327.3,2396.9 1332.7,2347.8 1337.4,2297.7 1341.3,2246.8 1344.7,2195.1 1347.4,2142.6 1349.6,2089.4 1351.4,2035.6 1352.6,1981.3 1353.5,1926.4 1353.9,1871.0 1354.0,1815.3 1353.7,1759.3 1353.1,1703.0 1352.2,1646.5 1351.0,1589.8 1349.5,1533.1 1347.8,1476.3 1345.7,1419.6 1343.4,1363.0 1340.8,1306.5 1337.9,1250.3 1334.7,1194.3 1331.2,1138.7 1327.4,1083.5 1323.1,1028.8 1318.5,974.6 1313.5,921.0 1308.0,868.1 1302.0,815.9 1295.4,764.5 1288.3,713.9 1280.6,664.2 1272.1,615.5 1263.0,567.9 1253.0,521.3 1242.2,476.0  " style="stroke-opacity: 1.000000; stroke-width: 20.0; stroke: rgb(102,194,165); fill: none"  />
<path d="M 2150.8,2331.6 L 2122.1,2294.0 2093.6,2255.0 2065.2,2214.9 2037.1,2173.5 2009.1,2131.1 1981.2,2087.7 1953.4,2043.3 1925.6,1998.2 1897.9,1952.3 1870.2,1905.6 1842.5,1858.4 1814.9,1810.6 1787.2,1762.3 1759.5,1713.6 1731.9,1664.6 1704.2,1615.2 1676.6,1565.6 1649.1,1515.8 1621.6,1465.9 1594.2,1415.9 1566.9,1365.8 1539.7,1315.8 1512.7,1265.9 1486.0,1216.0 1459.5,1166.3 1433.3,1116.8 1407.5,1067.5 1382.1,1018.5 1357.2,969.7 1332.8,921.3 1309.0,873.2 1285.8,825.5 1263.4,778.2 1241.8,731.4 1221.1,684.9 1201.4,639.0 1182.7,593.5 1165.2,548.5 1149.0,504.0  " style="stroke-opacity: 1.000000; stroke-width: 20.0; stroke: rgb(102,194,165); fill: none"  />
<path d="M 2340.4,2139.4 L 2304.5,2111.2 2268.5,2081.5 2232.5,2050.2 2196.6,2017.6 2160.7,1983.7 2124.9,1948.5 2089.1,1912.1 2053.4,1874.6 2017.7,1836.2 1982.2,1796.7 1946.8,1756.4 1911.5,1715.3 1876.3,1673.5 1841.4,1630.9 1806.7,1587.7 1772.2,1544.0 1738.0,1499.8 1704.1,1455.1 1670.5,1410.1 1637.4,1364.8 1604.6,1319.1 1572.4,1273.3 1540.6,1227.3 1509.4,1181.2 1478.8,1135.0 1448.9,1088.8 1419.6,1042.6 1391.1,996.5 1363.5,950.5 1336.7,904.7 1310.8,859.1 1286.0,813.7 1262.2,768.5 1239.5,723.7 1218.1,679.2 1197.9,635.1 1179.0,591.4 1161.6,548.1 1145.6,505.2  " style="stroke-opacity: 1.000000; stroke-width: 20.0; stroke: rgb(102,194,165); fill: none"  />
<path d="M 2071.7,2387.9 L 2046.3,2347.5 2021.3,2305.9 1996.5,2263.1 1972.0,2219.2 1947.7,2174.3 1923.5,2128.5 1899.4,2081.8 1875.5,2034.3 1851.5,1986.1 1827.6,1937.3 1803.7,1887.9 1779.8,1838.0 1755.9,1787.6 1732.0,1736.9 1708.0,1685.8 1684.0,1634.5 1660.0,1583.0 1636.0,1531.4 1612.0,1479.6 1588.1,1427.8 1564.1,1376.0 1540.3,1324.3 1516.6,1272.6 1493.0,1221.2 1469.6,1169.8 1446.4,1118.8 1423.5,1067.9 1400.9,1017.4 1378.7,967.2 1357.0,917.4 1335.7,868.0 1315.0,818.9 1295.0,770.4 1275.7,722.3 1257.3,674.7 1239.7,627.6 1223.1,581.0 1207.6,535.0 1193.2,489.5  " style="stroke-opacity: 1.000000; stroke-width: 20.0; stroke: rgb(102,194,165); fill: none"  />
<path d="M 2393.7,937.5 L 2360.7,957.4 2326.6,976.2 2291.5,993.7 2255.6,1010.0 2219.0,1024.8 2181.8,1038.1 2144.0,1049.8 2105.9,1059.8 2067.5,1068.1 2029.0,1074.5 1990.3,1079.1 1951.7,1081.8 1913.2,1082.6 1874.9,1081.4 1836.9,1078.2 1799.2,1073.0 1762.1,1065.8 1725.4,1056.6 1689.4,1045.5 1654.1,1032.3 1619.6,1017.2 1585.9,1000.2 1553.0,981.3 1521.2,960.6 1490.4,938.2 1460.6,914.0 1432.0,888.2 1404.5,860.9 1378.3,832.1 1353.4,802.0 1329.7,770.7 1307.5,738.1 1286.6,704.6 1267.1,670.2 1249.1,635.0 1232.6,599.3 1217.6,563.0 1204.1,526.5 1192.1,489.9  " style="stroke-opacity: 1.000000; stroke-width: 20.0; stroke: rgb(102,194,165); fill: none"  />
<path d="M 2158.3,2325.7 L 2128.2,2287.2 2098.1,2247.6 2068.1,2207.0 2038.1,2165.5 2008.0,2123.2 1977.9,2080.2 1947.6,2036.5 1917.1,1992.3 1886.4,1947.5 1855.5,1902.4 1824.4,1856.9 1792.9,1811.1 1761.3,1765.1 1729.3,1718.9 1697.1,1672.6 1664.6,1626.3 1631.8,1580.0 1598.8,1533.8 1565.5,1487.6 1532.0,1441.5 1498.3,1395.6 1464.5,1350.0 1430.5,1304.5 1396.5,1259.3 1362.4,1214.4 1328.4,1169.8 1294.4,1125.4 1260.5,1081.4 1226.8,1037.8 1193.4,994.5 1160.3,951.5 1127.5,908.9 1095.3,866.6 1063.7,824.6 1032.7,783.0 1002.5,741.6 973.1,700.6 944.7,659.8 917.4,619.2  " style="stroke-opacity: 1.000000; stroke-width: 20.0; stroke: rgb(102,194,165); fill: none"  />
<path d="M 2156.9,2326.8 L 2127.9,2289.4 2099.1,2250.7 2070.5,2210.7 2042.0,2169.5 2013.7,2127.3 1985.5,2084.1 1957.3,2040.0 1929.2,1995.0 1901.2,1949.3 1873.1,1902.9 1845.1,1855.9 1817.1,1808.3 1789.0,1760.2 1761.0,1711.7 1733.0,1662.9 1705.0,1613.7 1677.0,1564.3 1649.0,1514.7 1621.2,1465.0 1593.4,1415.2 1565.7,1365.4 1538.2,1315.6 1510.8,1265.9 1483.7,1216.2 1456.8,1166.7 1430.2,1117.4 1404.0,1068.3 1378.3,1019.5 1352.9,970.9 1328.2,922.7 1304.0,874.8 1280.4,827.3 1257.7,780.2 1235.7,733.5 1214.6,687.2 1194.6,641.4 1175.5,596.1 1157.7,551.2 1141.1,506.9  " style="stroke-opacity: 1.000000; stroke-width: 20.0; stroke: rgb(102,194,165); fill: none"  />
<path d="M 2069.4,2389.3 L 2043.9,2348.5 2018.6,2306.5 1993.6,2263.4 1968.7,2219.3 1944.0,2174.3 1919.4,2128.3 1894.8,2081.6 1870.2,2034.2 1845.5,1986.1 1820.9,1937.4 1796.1,1888.3 1771.3,1838.7 1746.3,1788.8 1721.2,1738.5 1696.1,1688.0 1670.7,1637.3 1645.3,1586.4 1619.8,1535.5 1594.2,1484.5 1568.5,1433.5 1542.8,1382.6 1517.0,1331.8 1491.2,1281.1 1465.5,1230.6 1439.9,1180.3 1414.4,1130.2 1389.1,1080.5 1364.0,1031.0 1339.2,981.9 1314.8,933.1 1290.8,884.7 1267.3,836.7 1244.4,789.1 1222.1,742.0 1200.6,695.3 1179.9,649.1 1160.2,603.3 1141.5,558.1 1123.9,513.3  " style="stroke-opacity: 1.000000; stroke-width: 20.0; stroke: rgb(102,194,165); fill: none"  />
<path d="M 2203.3,2287.7 L 2171.3,2251.1 2139.3,2213.4 2107.2,2174.6 2075.2,2134.9 2043.1,2094.3 2010.8,2053.0 1978.4,2011.0 1945.9,1968.3 1913.1,1925.2 1880.2,1881.5 1847.0,1837.5 1813.5,1793.2 1779.8,1748.7 1745.9,1703.9 1711.7,1659.0 1677.3,1614.0 1642.6,1569.0 1607.8,1524.0 1572.7,1479.1 1537.5,1434.3 1502.2,1389.6 1466.7,1345.1 1431.2,1300.8 1395.6,1256.7 1360.1,1212.8 1324.7,1169.3 1289.3,1126.0 1254.2,1083.0 1219.3,1040.3 1184.7,998.0 1150.5,955.9 1116.8,914.2 1083.7,872.8 1051.1,831.7 1019.3,790.8 988.3,750.3 958.2,710.0 929.2,670.0 901.2,630.2  " style="stroke-opacity: 1.000000; stroke-width: 20.0; stroke: rgb(102,194,165); fill: none"  />
<path d="M 451.0,1621.4 L 489.6,1616.1 528.4,1609.3 567.2,1600.9 605.9,1590.9 644.4,1579.2 682.5,1566.0 720.1,1551.1 757.0,1534.7 793.2,1516.6 828.4,1497.1 862.7,1476.0 896.0,1453.4 928.0,1429.3 958.8,1403.8 988.2,1376.9 1016.2,1348.6 1042.6,1319.0 1067.6,1288.2 1090.9,1256.2 1112.6,1223.1 1132.5,1188.9 1150.8,1153.6 1167.2,1117.5 1181.9,1080.5 1194.7,1042.8 1205.8,1004.4 1215.0,965.4 1222.4,925.9 1227.9,886.0 1231.7,845.8 1233.7,805.5 1234.0,765.1 1232.5,724.7 1229.3,684.5 1224.6,644.6 1218.2,605.1 1210.4,566.1 1201.1,527.8 1190.4,490.4  " style="stroke-opacity: 1.000000; stroke-width: 20.0; stroke: rgb(102,194,165); fill: none"  />
<path d="M 1513.0,2555.9 L 1511.8,2509.1 1509.6,2461.3 1506.3,2412.7 1502.1,2363.3 1497.1,2313.1 1491.2,2262.2 1484.6,2210.6 1477.3,2158.4 1469.4,2105.6 1461.0,2052.3 1452.0,1998.5 1442.6,1944.3 1432.7,1889.8 1422.5,1834.9 1411.9,1779.8 1401.0,1724.4 1389.8,1668.9 1378.4,1613.3 1366.7,1557.7 1354.8,1502.1 1342.6,1446.5 1330.3,1391.1 1317.7,1335.9 1305.0,1280.9 1292.0,1226.3 1278.8,1172.1 1265.5,1118.3 1251.8,1065.0 1238.0,1012.2 1223.8,960.2 1209.4,908.8 1194.6,858.2 1179.5,808.5 1164.0,759.6 1148.0,711.8 1131.6,665.0 1114.6,619.3 1097.1,574.8 1078.9,531.6  " style="stroke-opacity: 1.000000; stroke-width: 20.0; stroke: rgb(102,194,165); fill: none"  />
<path d="M 2458.9,1942.3 L 2419.0,1923.0 2378.7,1902.1 2338.3,1879.6 2297.8,1855.6 2257.1,1830.1 2216.3,1803.2 2175.6,1774.9 2134.8,1745.3 2094.1,1714.6 2053.4,1682.7 2012.9,1649.6 1972.6,1615.6 1932.6,1580.6 1892.8,1544.6 1853.3,1507.8 1814.2,1470.2 1775.6,1431.8 1737.4,1392.8 1699.7,1353.1 1662.6,1312.9 1626.1,1272.1 1590.3,1230.9 1555.2,1189.2 1520.9,1147.2 1487.4,1104.9 1454.8,1062.3 1423.1,1019.5 1392.4,976.6 1362.8,933.6 1334.3,890.5 1306.9,847.4 1280.7,804.4 1255.9,761.5 1232.4,718.7 1210.2,676.0 1189.6,633.7 1170.4,591.6 1152.8,549.8 1136.9,508.4  " style="stroke-opacity: 1.000000; stroke-width: 20.0; stroke: rgb(102,194,165); fill: none"  />
<path d="M 2182.4,2305.9 L 2152.0,2269.2 2121.9,2231.3 2091.8,2192.1 2061.9,2151.8 2032.0,2110.5 2002.1,2068.2 1972.3,2025.0 1942.4,1981.0 1912.5,1936.3 1882.6,1891.0 1852.6,1845.0 1822.6,1798.6 1792.5,1751.7 1762.4,1704.4 1732.2,1656.8 1701.9,1608.9 1671.6,1560.8 1641.4,1512.6 1611.1,1464.2 1580.8,1415.8 1550.7,1367.4 1520.6,1319.1 1490.7,1270.8 1460.9,1222.6 1431.4,1174.6 1402.1,1126.8 1373.1,1079.2 1344.5,1031.8 1316.4,984.7 1288.7,937.9 1261.7,891.5 1235.2,845.3 1209.5,799.6 1184.6,754.2 1160.5,709.2 1137.4,664.6 1115.4,620.5 1094.5,576.7 1074.9,533.3  " style="stroke-opacity: 1.000000; stroke-width: 20.0; stroke: rgb(102,194,165); fill: none"  />
</g>
<g id="track_1">
<path d="M 2237.8,2255.5 L 2204.5,2220.7 2171.3,2184.7 2138.0,2147.5 2104.7,2109.4 2071.4,2070.3 2037.9,2030.3 2004.3,1989.5 1970.6,1948.1 1936.7,1906.0 1902.6,1863.4 1868.4,1820.3 1834.0,1776.8 1799.4,1733.0 1764.6,1688.8 1729.7,1644.5 1694.6,1600.0 1659.3,1555.4 1624.0,1510.7 1588.5,1466.1 1552.9,1421.4 1517.3,1376.8 1481.7,1332.3 1446.2,1287.9 1410.7,1243.8 1375.3,1199.8 1340.2,1156.0 1305.2,1112.4 1270.5,1069.1 1236.2,1026.1 1202.3,983.4 1168.9,940.9 1136.1,898.7 1103.9,856.9 1072.5,815.3 1041.8,774.0 1012.1,733.0 983.4,692.2 955.7,651.7 929.3,611.5  " style="stroke-opacity: 1.000000; stroke-width: 20.0; stroke: rgb(0,0,0); fill: none"  />
</g>
<g id="plot0">
<g id="plot0-axis">
</g>
<path d="M1733.882,389.154 A1135.200,1135.200 40.000 0,1 1808.449,407.508 L1846.489,272.775 A1275.200,1275.200 0.000 0,0 1762.725,252.158 Z" style="stroke-width:8.0;stroke:rgb(0,0,0);stroke-linecap:round;fill:rgb(150,150,150);" />
<path d="M1939.965,453.525 A1135.200,1135.200 40.000 0,1 1940.819,453.884 L1995.183,324.871 A1275.200,1275.200 0.000 0,0 1994.224,324.467 Z" style="stroke-width:8.0;stroke:rgb(0,0,0);stroke-linecap:round;fill:rgb(150,150,150);" />
<path d="M1952.002,458.668 A1135.200,1135.200 40.000 0,1 1953.015,459.108 L2008.883,330.738 A1275.200,1275.200 0.000 0,0 2007.746,330.244 Z" style="stroke-width:8.0;stroke:rgb(0,0,0);stroke-linecap:round;fill:rgb(150,150,150);" />
<path d="M1964.933,464.377 A1135.200,1135.200 40.000 0,1 1966.156,464.926 L2023.645,337.275 A1275.200,1275.200 0.000 0,0 2022.272,336.657 Z" style="stroke-width:8.0;stroke:rgb(0,0,0);stroke-linecap:round;fill:rgb(150,150,150);" />
<path d="M2107.175,540.824 A1135.200,1135.200 40.000 0,1 2108.357,541.574 L2183.383,423.375 A1275.200,1275.200 0.000 0,0 2182.055,422.533 Z" style="stroke-width:8.0;stroke:rgb(0,0,0);stroke-linecap:round;fill:rgb(150,150,150);" />
<path d="M2139.840,562.299 A1135.200,1135.200 40.000 0,1 2141.142,563.189 L2220.212,447.655 A1275.200,1275.200 0.000 0,0 2218.749,446.655 Z" style="stroke-width:8.0;stroke:rgb(0,0,0);stroke-linecap:round;fill:rgb(150,150,150);" />
<path d="M2155.207,572.971 A1135.200,1135.200 40.000 0,1 2158.471,575.286 L2239.677,461.245 A1275.200,1275.200 0.000 0,0 2236.011,458.644 Z" style="stroke-width:8.0;stroke:rgb(0,0,0);stroke-linecap:round;fill:rgb(150,150,150);" />
<path d="M2430.549,849.802 A1135.200,1135.200 40.000 0,1 2432.251,852.244 L2547.222,772.359 A1275.200,1275.200 0.000 0,0 2545.310,769.615 Z" style="stroke-width:8.0;stroke:rgb(0,0,0);stroke-linecap:round;fill:rgb(150,150,150);" />
<path d="M2605.849,1243.530 A1135.200,1135.200 40.000 0,1 2606.808,1247.699 L2743.306,1216.584 A1275.200,1275.200 0.000 0,0 2742.229,1211.900 Z" style="stroke-width:8.0;stroke:rgb(0,0,0);stroke-linecap:round;fill:rgb(150,150,150);" />
<path d="M992.512,2515.448 A1135.200,1135.200 40.000 0,1 991.014,2514.698 L928.242,2639.837 A1275.200,1275.200 0.000 0,0 929.926,2640.680 Z" style="stroke-width:8.0;stroke:rgb(0,0,0);stroke-linecap:round;fill:rgb(150,150,150);" />
<path d="M837.713,2421.984 A1135.200,1135.200 40.000 0,1 836.097,2420.821 L754.220,2534.383 A1275.200,1275.200 0.000 0,0 756.035,2535.689 Z" style="stroke-width:8.0;stroke:rgb(0,0,0);stroke-linecap:round;fill:rgb(150,150,150);" />
<path d="M448.376,1072.488 A1135.200,1135.200 40.000 0,1 448.644,1071.830 L318.984,1019.026 A1275.200,1275.200 0.000 0,0 318.684,1019.764 Z" style="stroke-width:8.0;stroke:rgb(0,0,0);stroke-linecap:round;fill:rgb(150,150,150);" />
<path d="M579.854,835.162 A1135.200,1135.200 40.000 0,1 598.704,809.823 L487.551,724.706 A1275.200,1275.200 0.000 0,0 466.376,753.170 Z" style="stroke-width:8.0;stroke:rgb(0,0,0);stroke-linecap:round;fill:rgb(150,150,150);" />
<path d="M617.991,785.339 A1135.200,1135.200 40.000 0,1 619.881,783.014 L511.339,694.590 A1275.200,1275.200 0.000 0,0 509.217,697.203 Z" style="stroke-width:8.0;stroke:rgb(0,0,0);stroke-linecap:round;fill:rgb(150,150,150);" />
<path d="M626.266,775.247 A1135.200,1135.200 40.000 0,1 628.056,773.094 L520.522,683.448 A1275.200,1275.200 0.000 0,0 518.511,685.866 Z" style="stroke-width:8.0;stroke:rgb(0,0,0);stroke-linecap:round;fill:rgb(150,150,150);" />
<path d="M655.271,741.638 A1135.200,1135.200 40.000 0,1 656.524,740.246 L552.501,646.548 A1275.200,1275.200 0.000 0,0 551.094,648.112 Z" style="stroke-width:8.0;stroke:rgb(0,0,0);stroke-linecap:round;fill:rgb(150,150,150);" />
<path d="M670.692,724.805 A1135.200,1135.200 40.000 0,1 673.052,722.288 L571.067,626.376 A1275.200,1275.200 0.000 0,0 568.417,629.203 Z" style="stroke-width:8.0;stroke:rgb(0,0,0);stroke-linecap:round;fill:rgb(150,150,150);" />
<path d="M691.428,703.200 A1135.200,1135.200 40.000 0,1 693.798,700.802 L594.372,602.240 A1275.200,1275.200 0.000 0,0 591.710,604.934 Z" style="stroke-width:8.0;stroke:rgb(0,0,0);stroke-linecap:round;fill:rgb(150,150,150);" />
<path d="M737.693,658.830 A1135.200,1135.200 40.000 0,1 738.321,658.261 L644.387,554.452 A1275.200,1275.200 0.000 0,0 643.681,555.091 Z" style="stroke-width:8.0;stroke:rgb(0,0,0);stroke-linecap:round;fill:rgb(150,150,150);" />
<path d="M776.363,625.341 A1135.200,1135.200 40.000 0,1 778.035,623.960 L688.998,515.922 A1275.200,1275.200 0.000 0,0 687.119,517.473 Z" style="stroke-width:8.0;stroke:rgb(0,0,0);stroke-linecap:round;fill:rgb(150,150,150);" />
<path d="M796.354,609.179 A1135.200,1135.200 40.000 0,1 798.305,607.642 L711.768,497.591 A1275.200,1275.200 0.000 0,0 709.576,499.318 Z" style="stroke-width:8.0;stroke:rgb(0,0,0);stroke-linecap:round;fill:rgb(150,150,150);" />
<path d="M925.106,521.136 A1135.200,1135.200 40.000 0,1 927.130,519.950 L856.480,399.084 A1275.200,1275.200 0.000 0,0 854.206,400.416 Z" style="stroke-width:8.0;stroke:rgb(0,0,0);stroke-linecap:round;fill:rgb(150,150,150);" />
<path d="M944.132,510.207 A1135.200,1135.200 40.000 0,1 945.611,509.378 L877.240,387.208 A1275.200,1275.200 0.000 0,0 875.579,388.140 Z" style="stroke-width:8.0;stroke:rgb(0,0,0);stroke-linecap:round;fill:rgb(150,150,150);" />
<path d="M1029.354,466.960 A1135.200,1135.200 40.000 0,1 1033.341,465.153 L975.789,337.529 A1275.200,1275.200 0.000 0,0 971.312,339.559 Z" style="stroke-width:8.0;stroke:rgb(0,0,0);stroke-linecap:round;fill:rgb(150,150,150);" />
<path d="M1097.821,438.430 A1135.200,1135.200 40.000 0,1 1099.111,437.942 L1049.671,306.962 A1275.200,1275.200 0.000 0,0 1048.221,307.511 Z" style="stroke-width:8.0;stroke:rgb(0,0,0);stroke-linecap:round;fill:rgb(150,150,150);" />
<path d="M1286.567,385.045 A1135.200,1135.200 40.000 0,1 1288.078,384.757 L1261.942,247.218 A1275.200,1275.200 0.000 0,0 1260.245,247.541 Z" style="stroke-width:8.0;stroke:rgb(0,0,0);stroke-linecap:round;fill:rgb(150,150,150);" />
</g>
<defs>
<pattern id="hline-sparse" width="10" height="10" patternTransform="rotate(0 0 0)" patternUnits="userSpaceOnUse"><line x1="0" y1="0" x2="10" y2="0" style="stroke:black;stroke-width:2" /></pattern>
<pattern id="checker" width="10" height="10" patternTransform="rotate(45 0 0)" patternUnits="userSpaceOnUse"><line x1="0" y1="0" x2="10" y2="0" style="stroke:black;stroke-width:5" /><line x1="0" y1="0" x2="0" y2="10" style="stroke:black;stroke-width:4" /></pattern>
<pattern id="vline" width="10" height="10" patternTransform="rotate(0 0 0)" patternUnits="userSpaceOnUse"><line x1="0" y1="0" x2="0" y2="10" style="stroke:black;stroke-width:5" /></pattern>
<pattern id="vline-sparse" width="10" height="10" patternTransform="rotate(0 0 0)" patternUnits="userSpaceOnUse"><line x1="0" y1="0" x2="0" y2="10" style="stroke:black;stroke-width:2" /></pattern>
<pattern id="checker" width="10" height="10" patternTransform="rotate(45 0 0)" patternUnits="userSpaceOnUse"><line x1="0" y1="0" x2="10" y2="0" style="stroke:black;stroke-width:2" /><line x1="0" y1="0" x2="0" y2="10" style="stroke:black;stroke-width:2" /></pattern>
<pattern id="hline" width="10" height="10" patternTransform="rotate(0 0 0)" patternUnits="userSpaceOnUse"><line x1="0" y1="0" x2="10" y2="0" style="stroke:black;stroke-width:5" /></pattern>
</defs>
</svg>
